<svg xmlns="http://www.w3.org/2000/svg" xmlns:xlink="http://www.w3.org/1999/xlink" version="1.1" width="256" height="256" viewBox="0 0 256 256" xml:space="preserve">

<defs>
</defs>
<g style="stroke: none; stroke-width: 0; stroke-dasharray: none; stroke-linecap: butt; stroke-linejoin: miter; stroke-miterlimit: 10; fill: none; fill-rule: nonzero; opacity: 1;" transform="translate(1.4065934065934016 1.4065934065934016) scale(2.81 2.81)" >
	<path d="M 87.009 50.414 l -29.31 13.667 c -2.592 1.209 -5.673 0.087 -6.881 -2.505 l -13.667 -29.31 c -1.209 -2.592 -0.087 -5.673 2.505 -6.881 l 29.31 -13.667 c 2.592 -1.209 5.673 -0.087 6.881 2.505 l 13.667 29.31 C 90.722 46.124 89.601 49.205 87.009 50.414 z" style="stroke: none; stroke-width: 1; stroke-dasharray: none; stroke-linecap: butt; stroke-linejoin: miter; stroke-miterlimit: 10; fill: rgb(189,0,40); fill-rule: nonzero; opacity: 1;" transform=" matrix(1 0 0 1 0 0) " stroke-linecap="round" />
	<path d="M 53.296 60.453 c 17.432 -8.129 24.974 -28.85 16.845 -46.281 c -0.387 -0.831 -0.812 -1.631 -1.255 -2.417 L 39.655 25.385 c -2.592 1.209 -3.713 4.289 -2.505 6.881 l 13.631 29.231 C 51.625 61.181 52.465 60.84 53.296 60.453 z" style="stroke: none; stroke-width: 1; stroke-dasharray: none; stroke-linecap: butt; stroke-linejoin: miter; stroke-miterlimit: 10; fill: rgb(208,0,44); fill-rule: nonzero; opacity: 1;" transform=" matrix(1 0 0 1 0 0) " stroke-linecap="round" />
	<path d="M 77.444 51.472 l -12.785 5.962 c -5.612 2.617 -12.282 0.189 -14.899 -5.423 l -5.962 -12.785 c -2.617 -5.612 -0.189 -12.282 5.423 -14.899 l 12.785 -5.962 c 5.612 -2.617 12.282 -0.189 14.899 5.423 l 5.962 12.785 C 85.483 42.185 83.055 48.855 77.444 51.472 z" style="stroke: none; stroke-width: 1; stroke-dasharray: none; stroke-linecap: butt; stroke-linejoin: miter; stroke-miterlimit: 10; fill: rgb(221,0,47); fill-rule: nonzero; opacity: 1;" transform=" matrix(1 0 0 1 0 0) " stroke-linecap="round" />
	<circle cx="63.309" cy="37.839" r="3.309" style="stroke: none; stroke-width: 1; stroke-dasharray: none; stroke-linecap: butt; stroke-linejoin: miter; stroke-miterlimit: 10; fill: rgb(255,255,255); fill-rule: nonzero; opacity: 1;" transform="  matrix(1 0 0 1 0 0) "/>
	<circle cx="67.919" cy="25.289" r="3.309" style="stroke: none; stroke-width: 1; stroke-dasharray: none; stroke-linecap: butt; stroke-linejoin: miter; stroke-miterlimit: 10; fill: rgb(255,255,255); fill-rule: nonzero; opacity: 1;" transform="  matrix(1 0 0 1 0 0) "/>
	<circle cx="58.739" cy="50.509" r="3.309" style="stroke: none; stroke-width: 1; stroke-dasharray: none; stroke-linecap: butt; stroke-linejoin: miter; stroke-miterlimit: 10; fill: rgb(255,255,255); fill-rule: nonzero; opacity: 1;" transform="  matrix(1 0 0 1 0 0) "/>
	<path d="M 37.518 78.768 H 5.178 C 2.318 78.768 0 76.45 0 73.59 V 41.25 c 0 -2.86 2.318 -5.178 5.178 -5.178 h 32.34 c 2.86 0 5.178 2.318 5.178 5.178 v 32.34 C 42.696 76.45 40.378 78.768 37.518 78.768 z" style="stroke: none; stroke-width: 1; stroke-dasharray: none; stroke-linecap: butt; stroke-linejoin: miter; stroke-miterlimit: 10; fill: rgb(189,0,40); fill-rule: nonzero; opacity: 1;" transform=" matrix(1 0 0 1 0 0) " stroke-linecap="round" />
	<path d="M 2.72 73.619 c 19.234 0 34.826 -15.592 34.826 -34.826 c 0 -0.917 -0.046 -1.822 -0.116 -2.72 H 5.178 C 2.318 36.072 0 38.391 0 41.25 v 32.253 C 0.899 73.573 1.804 73.619 2.72 73.619 z" style="stroke: none; stroke-width: 1; stroke-dasharray: none; stroke-linecap: butt; stroke-linejoin: miter; stroke-miterlimit: 10; fill: rgb(208,0,44); fill-rule: nonzero; opacity: 1;" transform=" matrix(1 0 0 1 0 0) " stroke-linecap="round" />
	<path d="M 28.401 75.685 H 14.295 c -6.192 0 -11.211 -5.019 -11.211 -11.211 V 50.367 c 0 -6.192 5.019 -11.211 11.211 -11.211 h 14.107 c 6.192 0 11.211 5.019 11.211 11.211 v 14.107 C 39.612 70.665 34.593 75.685 28.401 75.685 z" style="stroke: none; stroke-width: 1; stroke-dasharray: none; stroke-linecap: butt; stroke-linejoin: miter; stroke-miterlimit: 10; fill: rgb(221,0,47); fill-rule: nonzero; opacity: 1;" transform=" matrix(1 0 0 1 0 0) " stroke-linecap="round" />
	<circle cx="11.859000000000002" cy="57.419" r="3.309" style="stroke: none; stroke-width: 1; stroke-dasharray: none; stroke-linecap: butt; stroke-linejoin: miter; stroke-miterlimit: 10; fill: rgb(255,255,255); fill-rule: nonzero; opacity: 1;" transform="  matrix(1 0 0 1 0 0) "/>
	<circle cx="30.839000000000002" cy="66.909" r="3.309" style="stroke: none; stroke-width: 1; stroke-dasharray: none; stroke-linecap: butt; stroke-linejoin: miter; stroke-miterlimit: 10; fill: rgb(255,255,255); fill-rule: nonzero; opacity: 1;" transform="  matrix(1 0 0 1 0 0) "/>
	<circle cx="30.839000000000002" cy="47.928999999999995" r="3.309" style="stroke: none; stroke-width: 1; stroke-dasharray: none; stroke-linecap: butt; stroke-linejoin: miter; stroke-miterlimit: 10; fill: rgb(255,255,255); fill-rule: nonzero; opacity: 1;" transform="  matrix(1 0 0 1 0 0) "/>
	<circle cx="11.859000000000002" cy="66.909" r="3.309" style="stroke: none; stroke-width: 1; stroke-dasharray: none; stroke-linecap: butt; stroke-linejoin: miter; stroke-miterlimit: 10; fill: rgb(255,255,255); fill-rule: nonzero; opacity: 1;" transform="  matrix(1 0 0 1 0 0) "/>
	<circle cx="11.859000000000002" cy="47.928999999999995" r="3.309" style="stroke: none; stroke-width: 1; stroke-dasharray: none; stroke-linecap: butt; stroke-linejoin: miter; stroke-miterlimit: 10; fill: rgb(255,255,255); fill-rule: nonzero; opacity: 1;" transform="  matrix(1 0 0 1 0 0) "/>
	<circle cx="30.839000000000002" cy="57.419" r="3.309" style="stroke: none; stroke-width: 1; stroke-dasharray: none; stroke-linecap: butt; stroke-linejoin: miter; stroke-miterlimit: 10; fill: rgb(255,255,255); fill-rule: nonzero; opacity: 1;" transform="  matrix(1 0 0 1 0 0) "/>
</g>
</svg>